<mxfile>
    <diagram name="Page-1" id="efa7a0a1-bf9b-a30e-e6df-94a7791c09e9">
        <mxGraphModel dx="520" dy="322" grid="1" gridSize="10" guides="1" tooltips="1" connect="1" arrows="1" fold="1" page="1" pageScale="1" pageWidth="826" pageHeight="1169" background="#DAD2D8" math="0" shadow="0">
            <root>
                <mxCell id="0"/>
                <mxCell id="1" parent="0"/>
                <mxCell id="20" value="&lt;p style=&quot;margin: 0px ; margin-top: 4px ; text-align: center ; text-decoration: underline&quot;&gt;&lt;b&gt;Student&lt;/b&gt;&lt;/p&gt;&lt;hr&gt;&lt;p style=&quot;margin: 0px ; margin-left: 8px&quot;&gt;&lt;u&gt;Idstudent&lt;/u&gt;&lt;/p&gt;&lt;p style=&quot;margin: 0px ; margin-left: 8px&quot;&gt;&lt;u&gt;#formator&lt;/u&gt;&lt;br&gt;&lt;/p&gt;&lt;p style=&quot;margin: 0px ; margin-left: 8px&quot;&gt;Name&lt;/p&gt;&lt;p style=&quot;margin: 0px ; margin-left: 8px&quot;&gt;email&lt;/p&gt;&lt;p style=&quot;margin: 0px ; margin-left: 8px&quot;&gt;password&lt;/p&gt;&lt;p style=&quot;margin: 0px ; margin-left: 8px&quot;&gt;&lt;br&gt;&lt;/p&gt;" style="verticalAlign=top;align=left;overflow=fill;fontSize=12;fontFamily=Helvetica;html=1;strokeColor=#0F8B8D;shadow=1;fillColor=#FAE5C7;fontColor=#143642;" parent="1" vertex="1">
                    <mxGeometry x="540" y="339" width="160" height="117.5" as="geometry"/>
                </mxCell>
                <mxCell id="25" value="&lt;p style=&quot;margin: 0px ; margin-top: 4px ; text-align: center ; text-decoration: underline&quot;&gt;&lt;strong&gt;Task&lt;/strong&gt;&lt;/p&gt;&lt;hr&gt;&lt;p style=&quot;margin: 0px ; margin-left: 8px&quot;&gt;&lt;u&gt;Idtask&lt;/u&gt;&lt;/p&gt;&lt;p style=&quot;margin: 0px ; margin-left: 8px&quot;&gt;&lt;u&gt;#formator&lt;/u&gt;&lt;u&gt;&lt;br&gt;&lt;/u&gt;&lt;/p&gt;&lt;p style=&quot;margin: 0px ; margin-left: 8px&quot;&gt;T.name&lt;/p&gt;&lt;p style=&quot;margin: 0px ; margin-left: 8px&quot;&gt;deadline&lt;/p&gt;" style="verticalAlign=top;align=left;overflow=fill;fontSize=12;fontFamily=Helvetica;html=1;strokeColor=#0F8B8D;shadow=1;fillColor=#FAE5C7;fontColor=#143642;" parent="1" vertex="1">
                    <mxGeometry x="180" y="65" width="160" height="110" as="geometry"/>
                </mxCell>
                <mxCell id="87" value="" style="endArrow=open;endSize=12;startArrow=diamondThin;startSize=14;startFill=0;edgeStyle=orthogonalEdgeStyle;strokeColor=#A8201A;fontColor=#143642;labelBackgroundColor=#DAD2D8;exitX=1;exitY=0.5;exitDx=0;exitDy=0;" parent="1" edge="1" source="21">
                    <mxGeometry x="479.3599999999999" y="205.5" as="geometry">
                        <mxPoint x="350" y="355" as="sourcePoint"/>
                        <mxPoint x="540" y="403" as="targetPoint"/>
                        <Array as="points">
                            <mxPoint x="540" y="403"/>
                        </Array>
                    </mxGeometry>
                </mxCell>
                <mxCell id="89" value="1" style="resizable=0;align=right;verticalAlign=top;fontSize=10;strokeColor=#0F8B8D;shadow=1;fillColor=#FAE5C7;fontColor=#143642;labelBackgroundColor=#DAD2D8;" parent="87" connectable="0" vertex="1">
                    <mxGeometry x="1" relative="1" as="geometry">
                        <mxPoint x="-3.0000000000001883" y="1.8474111129762605e-13" as="offset"/>
                    </mxGeometry>
                </mxCell>
                <mxCell id="90" value="" style="endArrow=open;endSize=12;startArrow=diamondThin;startSize=14;startFill=0;edgeStyle=orthogonalEdgeStyle;strokeColor=#A8201A;fontColor=#143642;labelBackgroundColor=#DAD2D8;entryX=0.5;entryY=1;entryDx=0;entryDy=0;exitX=0.5;exitY=0;exitDx=0;exitDy=0;" parent="1" source="21" edge="1">
                    <mxGeometry x="620" y="340" as="geometry">
                        <mxPoint x="300" y="330" as="sourcePoint"/>
                        <mxPoint x="260" y="175" as="targetPoint"/>
                        <Array as="points"/>
                    </mxGeometry>
                </mxCell>
                <mxCell id="91" value="1.n" style="resizable=0;align=left;verticalAlign=top;fontSize=10;strokeColor=#0F8B8D;shadow=1;fillColor=#FAE5C7;fontColor=#143642;labelBackgroundColor=#DAD2D8;rotation=5;" parent="90" connectable="0" vertex="1">
                    <mxGeometry x="-1" relative="1" as="geometry">
                        <mxPoint x="10" y="90" as="offset"/>
                    </mxGeometry>
                </mxCell>
                <mxCell id="92" value="1" style="resizable=0;align=right;verticalAlign=top;fontSize=10;strokeColor=#0F8B8D;shadow=1;fillColor=#FAE5C7;fontColor=#143642;labelBackgroundColor=#DAD2D8;" parent="90" connectable="0" vertex="1">
                    <mxGeometry x="1" relative="1" as="geometry">
                        <mxPoint x="17" y="-0.6699999999998294" as="offset"/>
                    </mxGeometry>
                </mxCell>
                <mxCell id="21" value="&lt;p style=&quot;margin: 0px ; margin-top: 4px ; text-align: center ; text-decoration: underline&quot;&gt;&lt;b&gt;Formator&lt;/b&gt;&lt;/p&gt;&lt;hr&gt;&lt;p style=&quot;margin: 0px ; margin-left: 8px&quot;&gt;&lt;u&gt;Idformator&lt;/u&gt;&lt;/p&gt;&lt;p style=&quot;margin: 0px ; margin-left: 8px&quot;&gt;Name&lt;/p&gt;&lt;p style=&quot;margin: 0px ; margin-left: 8px&quot;&gt;email&lt;/p&gt;&lt;p style=&quot;margin: 0px ; margin-left: 8px&quot;&gt;password&lt;/p&gt;&lt;p style=&quot;margin: 0px ; margin-left: 8px&quot;&gt;&lt;br&gt;&lt;/p&gt;" style="verticalAlign=top;align=left;overflow=fill;fontSize=12;fontFamily=Helvetica;html=1;strokeColor=#0F8B8D;shadow=1;fillColor=#FAE5C7;fontColor=#143642;" parent="1" vertex="1">
                    <mxGeometry x="180" y="345.5" width="160" height="115" as="geometry"/>
                </mxCell>
                <mxCell id="NQc16I_gF5izETLV-hBE-132" value=":" style="text;html=1;align=center;verticalAlign=middle;resizable=0;points=[];autosize=1;fontColor=#143642;" parent="1" vertex="1">
                    <mxGeometry x="300" y="584" width="20" height="20" as="geometry"/>
                </mxCell>
                <mxCell id="hsvbSzM_Ig0Xdfvs6CDP-92" value="" style="ellipse;whiteSpace=wrap;html=1;fillColor=#FAE5C7;strokeColor=#0F8B8D;fontColor=#143642;" parent="1" vertex="1">
                    <mxGeometry x="413" y="378" width="90" height="50" as="geometry"/>
                </mxCell>
                <mxCell id="hsvbSzM_Ig0Xdfvs6CDP-97" value="" style="endArrow=none;html=1;entryX=0;entryY=0.5;entryDx=0;entryDy=0;exitX=1;exitY=0.5;exitDx=0;exitDy=0;strokeColor=#A8201A;fontColor=#143642;labelBackgroundColor=#DAD2D8;" parent="1" source="hsvbSzM_Ig0Xdfvs6CDP-92" target="hsvbSzM_Ig0Xdfvs6CDP-92" edge="1">
                    <mxGeometry width="50" height="50" relative="1" as="geometry">
                        <mxPoint x="390" y="279" as="sourcePoint"/>
                        <mxPoint x="440" y="329" as="targetPoint"/>
                        <Array as="points"/>
                    </mxGeometry>
                </mxCell>
                <mxCell id="hsvbSzM_Ig0Xdfvs6CDP-98" value="" style="ellipse;whiteSpace=wrap;html=1;fillColor=#FAE5C7;strokeColor=#0F8B8D;fontColor=#143642;" parent="1" vertex="1">
                    <mxGeometry x="215" y="220" width="90" height="40" as="geometry"/>
                </mxCell>
                <mxCell id="hsvbSzM_Ig0Xdfvs6CDP-104" value="" style="endArrow=none;html=1;exitX=1;exitY=0.5;exitDx=0;exitDy=0;strokeColor=#A8201A;fontColor=#143642;entryX=0;entryY=0.5;entryDx=0;entryDy=0;labelBackgroundColor=#DAD2D8;" parent="1" source="hsvbSzM_Ig0Xdfvs6CDP-98" target="hsvbSzM_Ig0Xdfvs6CDP-98" edge="1">
                    <mxGeometry width="50" height="50" relative="1" as="geometry">
                        <mxPoint x="355" y="240" as="sourcePoint"/>
                        <mxPoint x="290" y="240" as="targetPoint"/>
                        <Array as="points"/>
                    </mxGeometry>
                </mxCell>
                <mxCell id="hsvbSzM_Ig0Xdfvs6CDP-113" value="&lt;span style=&quot;color: rgb(20 , 54 , 66) ; font-family: &amp;#34;helvetica&amp;#34; ; font-size: 12px ; font-style: normal ; font-weight: 400 ; letter-spacing: normal ; text-align: center ; text-indent: 0px ; text-transform: none ; word-spacing: 0px ; display: inline ; float: none&quot;&gt;assignÃ©&lt;/span&gt;" style="text;whiteSpace=wrap;html=1;fontColor=#143642;" parent="1" vertex="1">
                    <mxGeometry x="438" y="380" width="32" height="9" as="geometry"/>
                </mxCell>
                <mxCell id="VhuOBF8JD9hyvOPjXQCU-92" value="&lt;p style=&quot;margin: 0px ; margin-top: 4px ; text-align: center ; text-decoration: underline&quot;&gt;&lt;b&gt;Validation&lt;/b&gt;&lt;/p&gt;&lt;hr&gt;&lt;p style=&quot;margin: 0px ; margin-left: 8px&quot;&gt;&lt;u&gt;S.Validation&lt;/u&gt;&lt;/p&gt;&lt;p style=&quot;margin: 0px ; margin-left: 8px&quot;&gt;&lt;span&gt;&lt;u&gt;#Idtask&lt;/u&gt;&lt;/span&gt;&lt;/p&gt;&lt;p style=&quot;margin: 0px ; margin-left: 8px&quot;&gt;&lt;u&gt;#Idformator&lt;/u&gt;&lt;/p&gt;&lt;p style=&quot;margin: 0px ; margin-left: 8px&quot;&gt;#&lt;u&gt;Idstudent&lt;/u&gt;&lt;/p&gt;" style="verticalAlign=top;align=left;overflow=fill;fontSize=12;fontFamily=Helvetica;html=1;strokeColor=#0F8B8D;shadow=1;fillColor=#FAE5C7;fontColor=#143642;" parent="1" vertex="1">
                    <mxGeometry x="540" y="60" width="160" height="110" as="geometry"/>
                </mxCell>
                <mxCell id="VhuOBF8JD9hyvOPjXQCU-93" value="" style="endArrow=open;endSize=12;startArrow=diamondThin;startSize=14;startFill=0;edgeStyle=orthogonalEdgeStyle;strokeColor=#A8201A;fontColor=#143642;labelBackgroundColor=#DAD2D8;entryX=0.553;entryY=0.034;entryDx=0;entryDy=0;entryPerimeter=0;" edge="1" parent="1" target="20">
                    <mxGeometry x="945" y="340" as="geometry">
                        <mxPoint x="625" y="170" as="sourcePoint"/>
                        <mxPoint x="625" y="290" as="targetPoint"/>
                    </mxGeometry>
                </mxCell>
                <mxCell id="VhuOBF8JD9hyvOPjXQCU-94" value="1.n" style="resizable=0;align=left;verticalAlign=top;fontSize=10;strokeColor=#0F8B8D;shadow=1;fillColor=#FAE5C7;fontColor=#143642;labelBackgroundColor=#DAD2D8;" connectable="0" vertex="1" parent="VhuOBF8JD9hyvOPjXQCU-93">
                    <mxGeometry x="-1" relative="1" as="geometry">
                        <mxPoint x="15" y="140" as="offset"/>
                    </mxGeometry>
                </mxCell>
                <mxCell id="VhuOBF8JD9hyvOPjXQCU-95" value="1" style="resizable=0;align=right;verticalAlign=top;fontSize=10;strokeColor=#0F8B8D;shadow=1;fillColor=#FAE5C7;fontColor=#143642;labelBackgroundColor=#DAD2D8;" connectable="0" vertex="1" parent="VhuOBF8JD9hyvOPjXQCU-93">
                    <mxGeometry x="1" relative="1" as="geometry">
                        <mxPoint x="20" y="-121.66999999999982" as="offset"/>
                    </mxGeometry>
                </mxCell>
                <mxCell id="VhuOBF8JD9hyvOPjXQCU-96" value="" style="ellipse;whiteSpace=wrap;html=1;fillColor=#FAE5C7;strokeColor=#0F8B8D;fontColor=#143642;" vertex="1" parent="1">
                    <mxGeometry x="590" y="220" width="90" height="40" as="geometry"/>
                </mxCell>
                <mxCell id="VhuOBF8JD9hyvOPjXQCU-97" value="newTask" style="text;html=1;align=center;verticalAlign=middle;resizable=0;points=[];autosize=1;fontColor=#143642;" vertex="1" parent="1">
                    <mxGeometry x="231" y="220" width="60" height="20" as="geometry"/>
                </mxCell>
                <mxCell id="VhuOBF8JD9hyvOPjXQCU-98" value="" style="endArrow=open;endSize=12;startArrow=diamondThin;startSize=14;startFill=0;edgeStyle=orthogonalEdgeStyle;strokeColor=#A8201A;fontColor=#143642;labelBackgroundColor=#DAD2D8;" edge="1" parent="1">
                    <mxGeometry x="860" y="270" as="geometry">
                        <mxPoint x="540" y="120" as="sourcePoint"/>
                        <mxPoint x="340" y="120" as="targetPoint"/>
                        <Array as="points">
                            <mxPoint x="410" y="120"/>
                            <mxPoint x="410" y="120"/>
                        </Array>
                    </mxGeometry>
                </mxCell>
                <mxCell id="VhuOBF8JD9hyvOPjXQCU-99" value="1.n" style="resizable=0;align=left;verticalAlign=top;fontSize=10;strokeColor=#0F8B8D;shadow=1;fillColor=#FAE5C7;fontColor=#143642;labelBackgroundColor=#DAD2D8;" connectable="0" vertex="1" parent="VhuOBF8JD9hyvOPjXQCU-98">
                    <mxGeometry x="-1" relative="1" as="geometry">
                        <mxPoint x="-24" y="-27" as="offset"/>
                    </mxGeometry>
                </mxCell>
                <mxCell id="VhuOBF8JD9hyvOPjXQCU-100" value="1" style="resizable=0;align=right;verticalAlign=top;fontSize=10;strokeColor=#0F8B8D;shadow=1;fillColor=#FAE5C7;fontColor=#143642;labelBackgroundColor=#DAD2D8;" connectable="0" vertex="1" parent="VhuOBF8JD9hyvOPjXQCU-98">
                    <mxGeometry x="1" relative="1" as="geometry">
                        <mxPoint x="15" y="-27.999999999999815" as="offset"/>
                    </mxGeometry>
                </mxCell>
                <mxCell id="VhuOBF8JD9hyvOPjXQCU-101" value="" style="ellipse;whiteSpace=wrap;html=1;fillColor=#FAE5C7;strokeColor=#0F8B8D;fontColor=#143642;" vertex="1" parent="1">
                    <mxGeometry x="413" y="100" width="90" height="40" as="geometry"/>
                </mxCell>
                <mxCell id="VhuOBF8JD9hyvOPjXQCU-102" value="Validate&amp;nbsp;" style="text;html=1;align=center;verticalAlign=middle;resizable=0;points=[];autosize=1;fontColor=#143642;" vertex="1" parent="1">
                    <mxGeometry x="428" y="100" width="60" height="20" as="geometry"/>
                </mxCell>
                <mxCell id="VhuOBF8JD9hyvOPjXQCU-103" value="" style="endArrow=none;html=1;exitX=1;exitY=0.5;exitDx=0;exitDy=0;strokeColor=#A8201A;fontColor=#143642;entryX=0;entryY=0.5;entryDx=0;entryDy=0;labelBackgroundColor=#DAD2D8;" edge="1" parent="1" source="VhuOBF8JD9hyvOPjXQCU-101" target="VhuOBF8JD9hyvOPjXQCU-101">
                    <mxGeometry width="50" height="50" relative="1" as="geometry">
                        <mxPoint x="503" y="120" as="sourcePoint"/>
                        <mxPoint x="438" y="120" as="targetPoint"/>
                        <Array as="points"/>
                    </mxGeometry>
                </mxCell>
                <mxCell id="VhuOBF8JD9hyvOPjXQCU-105" value="" style="endArrow=none;html=1;entryX=1;entryY=0.5;entryDx=0;entryDy=0;exitX=0;exitY=0.5;exitDx=0;exitDy=0;strokeColor=#EA6B66;" edge="1" parent="1" source="VhuOBF8JD9hyvOPjXQCU-96" target="VhuOBF8JD9hyvOPjXQCU-96">
                    <mxGeometry width="50" height="50" relative="1" as="geometry">
                        <mxPoint x="380" y="230" as="sourcePoint"/>
                        <mxPoint x="430" y="180" as="targetPoint"/>
                    </mxGeometry>
                </mxCell>
                <mxCell id="VhuOBF8JD9hyvOPjXQCU-109" value="1.n" style="resizable=0;align=left;verticalAlign=top;fontSize=10;strokeColor=#0F8B8D;shadow=1;fillColor=#FAE5C7;fontColor=#143642;labelBackgroundColor=#DAD2D8;" connectable="0" vertex="1" parent="1">
                    <mxGeometry x="350" y="370" as="geometry">
                        <mxPoint x="-84" y="-52" as="offset"/>
                    </mxGeometry>
                </mxCell>
                <mxCell id="VhuOBF8JD9hyvOPjXQCU-113" value="&lt;font color=&quot;#000000&quot;&gt;S.Valider&lt;/font&gt;" style="text;html=1;align=center;verticalAlign=middle;resizable=0;points=[];autosize=1;" vertex="1" parent="1">
                    <mxGeometry x="601" y="220" width="60" height="20" as="geometry"/>
                </mxCell>
                <mxCell id="VhuOBF8JD9hyvOPjXQCU-114" value="1.n" style="resizable=0;align=left;verticalAlign=top;fontSize=10;strokeColor=#0F8B8D;shadow=1;fillColor=#FAE5C7;fontColor=#143642;labelBackgroundColor=#DAD2D8;" connectable="0" vertex="1" parent="1">
                    <mxGeometry x="350" y="339" as="geometry"/>
                </mxCell>
                <mxCell id="VhuOBF8JD9hyvOPjXQCU-116" value="" style="ellipse;whiteSpace=wrap;html=1;fillColor=#FAE5C7;strokeColor=#0F8B8D;fontColor=#143642;" vertex="1" parent="1">
                    <mxGeometry x="413" y="260" width="90" height="44" as="geometry"/>
                </mxCell>
                <mxCell id="VhuOBF8JD9hyvOPjXQCU-117" value="Valider or not&amp;nbsp;" style="text;html=1;align=center;verticalAlign=middle;resizable=0;points=[];autosize=1;fontColor=#143642;" vertex="1" parent="1">
                    <mxGeometry x="414" y="263" width="90" height="20" as="geometry"/>
                </mxCell>
                <mxCell id="VhuOBF8JD9hyvOPjXQCU-119" value="" style="endArrow=open;endSize=12;startArrow=diamondThin;startSize=14;startFill=0;edgeStyle=orthogonalEdgeStyle;strokeColor=#A8201A;fontColor=#143642;labelBackgroundColor=#DAD2D8;exitX=1.018;exitY=0.138;exitDx=0;exitDy=0;exitPerimeter=0;entryX=0.128;entryY=1.031;entryDx=0;entryDy=0;entryPerimeter=0;" edge="1" parent="1" source="21" target="VhuOBF8JD9hyvOPjXQCU-92">
                    <mxGeometry x="753" y="356.75" as="geometry">
                        <mxPoint x="393" y="362.25" as="sourcePoint"/>
                        <mxPoint x="560" y="277" as="targetPoint"/>
                        <Array as="points">
                            <mxPoint x="393" y="361"/>
                            <mxPoint x="393" y="280"/>
                            <mxPoint x="561" y="280"/>
                        </Array>
                    </mxGeometry>
                </mxCell>
                <mxCell id="VhuOBF8JD9hyvOPjXQCU-120" value="1.n" style="resizable=0;align=left;verticalAlign=top;fontSize=10;strokeColor=#0F8B8D;shadow=1;fillColor=#FAE5C7;fontColor=#143642;labelBackgroundColor=#DAD2D8;rotation=5;" connectable="0" vertex="1" parent="VhuOBF8JD9hyvOPjXQCU-119">
                    <mxGeometry x="-1" relative="1" as="geometry">
                        <mxPoint x="3" y="45" as="offset"/>
                    </mxGeometry>
                </mxCell>
                <mxCell id="VhuOBF8JD9hyvOPjXQCU-121" value="1" style="resizable=0;align=right;verticalAlign=top;fontSize=10;strokeColor=#0F8B8D;shadow=1;fillColor=#FAE5C7;fontColor=#143642;labelBackgroundColor=#DAD2D8;" connectable="0" vertex="1" parent="VhuOBF8JD9hyvOPjXQCU-119">
                    <mxGeometry x="1" relative="1" as="geometry">
                        <mxPoint x="89.52" y="-3.019999999999829" as="offset"/>
                    </mxGeometry>
                </mxCell>
                <mxCell id="VhuOBF8JD9hyvOPjXQCU-124" value="&lt;br&gt;" style="edgeLabel;html=1;align=center;verticalAlign=middle;resizable=0;points=[];" connectable="0" vertex="1" parent="VhuOBF8JD9hyvOPjXQCU-119">
                    <mxGeometry relative="1" as="geometry">
                        <mxPoint y="-52" as="offset"/>
                    </mxGeometry>
                </mxCell>
                <mxCell id="VhuOBF8JD9hyvOPjXQCU-126" value="1" style="resizable=0;align=right;verticalAlign=top;fontSize=10;strokeColor=#0F8B8D;shadow=1;fillColor=#FAE5C7;fontColor=#143642;labelBackgroundColor=#DAD2D8;" connectable="0" vertex="1" parent="1">
                    <mxGeometry x="370" y="90.00000000000023" as="geometry">
                        <mxPoint x="210" y="79" as="offset"/>
                    </mxGeometry>
                </mxCell>
                <mxCell id="VhuOBF8JD9hyvOPjXQCU-128" value="&lt;b style=&quot;color: rgb(20 , 54 , 66) ; font-family: &amp;#34;helvetica&amp;#34; ; text-align: center&quot;&gt;Student (&lt;/b&gt;&lt;span style=&quot;color: rgb(20 , 54 , 66) ; font-family: &amp;#34;helvetica&amp;#34; ; text-align: center&quot;&gt;&lt;u&gt;Idstudent&lt;/u&gt;, name, email, password, &lt;u&gt;#formator&lt;/u&gt;&lt;/span&gt;&lt;b style=&quot;color: rgb(20 , 54 , 66) ; font-family: &amp;#34;helvetica&amp;#34; ; text-align: center&quot;&gt;)&lt;br&gt;&lt;/b&gt;&lt;b style=&quot;color: rgb(20 , 54 , 66) ; font-family: &amp;#34;helvetica&amp;#34; ; font-size: 12px ; font-style: normal ; letter-spacing: normal ; text-align: center ; text-indent: 0px ; text-transform: none ; word-spacing: 0px&quot;&gt;&lt;br&gt;Formator (&lt;/b&gt;&lt;span style=&quot;color: rgb(20 , 54 , 66) ; font-family: &amp;#34;helvetica&amp;#34; ; font-size: 12px ; font-style: normal ; letter-spacing: normal ; text-align: center ; text-indent: 0px ; text-transform: none ; word-spacing: 0px&quot;&gt;&lt;b&gt;I&lt;/b&gt;&lt;/span&gt;&lt;span style=&quot;color: rgb(20 , 54 , 66) ; font-family: &amp;#34;helvetica&amp;#34; ; font-size: 12px ; font-style: normal ; font-weight: 400 ; letter-spacing: normal ; text-align: center ; text-indent: 0px ; text-transform: none ; word-spacing: 0px ; display: inline ; float: none&quot;&gt;&lt;u&gt;dformator&lt;/u&gt;, name, email, password&lt;/span&gt;&lt;b style=&quot;color: rgb(20 , 54 , 66) ; font-family: &amp;#34;helvetica&amp;#34; ; font-size: 12px ; font-style: normal ; letter-spacing: normal ; text-align: center ; text-indent: 0px ; text-transform: none ; word-spacing: 0px&quot;&gt;)&lt;br&gt;&lt;/b&gt;&lt;b style=&quot;color: rgb(20 , 54 , 66) ; font-family: &amp;#34;helvetica&amp;#34; ; font-size: 12px ; font-style: normal ; letter-spacing: normal ; text-align: center ; text-indent: 0px ; text-transform: none ; word-spacing: 0px&quot;&gt;&lt;br&gt;Task (&lt;/b&gt;&lt;span style=&quot;color: rgb(20 , 54 , 66) ; font-family: &amp;#34;helvetica&amp;#34; ; font-size: 12px ; font-style: normal ; font-weight: 400 ; letter-spacing: normal ; text-align: center ; text-indent: 0px ; text-transform: none ; word-spacing: 0px&quot;&gt;Idtask, t.name, deadline, #formator&lt;/span&gt;&lt;b style=&quot;color: rgb(20 , 54 , 66) ; font-family: &amp;#34;helvetica&amp;#34; ; font-size: 12px ; font-style: normal ; letter-spacing: normal ; text-align: center ; text-indent: 0px ; text-transform: none ; word-spacing: 0px&quot;&gt;)&lt;/b&gt;&lt;b style=&quot;color: rgb(20 , 54 , 66) ; font-family: &amp;#34;helvetica&amp;#34; ; font-size: 12px ; font-style: normal ; letter-spacing: normal ; text-align: center ; text-indent: 0px ; text-transform: none ; word-spacing: 0px&quot;&gt;&lt;br&gt;&lt;br&gt;validate (&lt;/b&gt;&lt;span style=&quot;color: rgb(20 , 54 , 66) ; font-family: &amp;#34;helvetica&amp;#34; ; font-size: 12px ; font-style: normal ; letter-spacing: normal ; text-align: center ; text-indent: 0px ; text-transform: none ; word-spacing: 0px&quot;&gt;&lt;u&gt;S.validate,&lt;/u&gt; &lt;u&gt;#&lt;/u&gt;&lt;/span&gt;&lt;span style=&quot;color: rgb(20 , 54 , 66) ; font-family: &amp;#34;helvetica&amp;#34; ; font-size: 12px ; font-style: normal ; letter-spacing: normal ; text-align: center ; text-indent: 0px ; text-transform: none ; word-spacing: 0px&quot;&gt;&lt;u&gt;Idformator&lt;/u&gt;, &lt;u&gt;#Idstudent, #Task&amp;nbsp;&lt;/u&gt;&lt;/span&gt;&lt;b style=&quot;color: rgb(20 , 54 , 66) ; font-family: &amp;#34;helvetica&amp;#34; ; font-size: 12px ; font-style: normal ; letter-spacing: normal ; text-align: center ; text-indent: 0px ; text-transform: none ; word-spacing: 0px&quot;&gt;)&lt;br&gt;&lt;/b&gt;&lt;b style=&quot;color: rgb(20 , 54 , 66) ; font-family: &amp;#34;helvetica&amp;#34; ; font-size: 12px ; font-style: normal ; letter-spacing: normal ; text-align: center ; text-indent: 0px ; text-transform: none ; word-spacing: 0px ; background-color: rgb(248 , 249 , 250)&quot;&gt;&lt;br&gt;&lt;/b&gt;" style="text;whiteSpace=wrap;html=1;" vertex="1" parent="1">
                    <mxGeometry x="300" y="590" width="320" height="80" as="geometry"/>
                </mxCell>
                <mxCell id="VhuOBF8JD9hyvOPjXQCU-129" value="&lt;div style=&quot;margin-right: 2px ; width: 24px ; display: flex ; align-items: center ; justify-content: center&quot;&gt;&lt;div style=&quot;font-size: 1.5em ; line-height: 1 ; margin-bottom: 0.1em&quot;&gt;&lt;/div&gt;&lt;/div&gt;&lt;div style=&quot;min-width: 1px ; display: flex ; flex-direction: column&quot;&gt;&lt;div style=&quot;display: flex&quot;&gt;&lt;div style=&quot;max-width: 100% ; width: 100% ; word-break: break-word ; padding: 3px 2px ; text-align: left&quot; spellcheck=&quot;true&quot; class=&quot;&quot;&gt;&lt;font color=&quot;#000000&quot;&gt;Conception merise (MLD)&lt;/font&gt;&lt;/div&gt;&lt;/div&gt;&lt;/div&gt;" style="text;html=1;align=center;verticalAlign=middle;resizable=0;points=[];autosize=1;" vertex="1" parent="1">
                    <mxGeometry x="350" y="554" width="160" height="30" as="geometry"/>
                </mxCell>
            </root>
        </mxGraphModel>
    </diagram>
</mxfile>